<svg width="30" height="30" viewBox="0 0 30 30" fill="none" xmlns="http://www.w3.org/2000/svg">
<path d="M12 18L28.5 1.5M12 18L17.25 28.5C17.3158 28.6436 17.4215 28.7653 17.5544 28.8506C17.6874 28.936 17.842 28.9813 18 28.9813C18.158 28.9813 18.3126 28.936 18.4456 28.8506C18.5785 28.7653 18.6842 28.6436 18.75 28.5L28.5 1.5M12 18L1.49998 12.75C1.35637 12.6842 1.23467 12.5785 1.14935 12.4456C1.06403 12.3126 1.01868 12.158 1.01868 12C1.01868 11.842 1.06403 11.6874 1.14935 11.5544C1.23467 11.4215 1.35637 11.3158 1.49998 11.25L28.5 1.5" stroke="white" stroke-width="2" stroke-linecap="round" stroke-linejoin="round"/>
</svg>
