<svg width="15" height="10" viewBox="0 0 15 10" fill="none" xmlns="http://www.w3.org/2000/svg">
<path d="M7.5 3.25C7.00272 3.25 6.52581 3.43437 6.17417 3.76256C5.82254 4.09075 5.625 4.53587 5.625 5C5.625 5.46413 5.82254 5.90925 6.17417 6.23744C6.52581 6.56563 7.00272 6.75 7.5 6.75C7.99728 6.75 8.47419 6.56563 8.82583 6.23744C9.17746 5.90925 9.375 5.46413 9.375 5C9.375 4.53587 9.17746 4.09075 8.82583 3.76256C8.47419 3.43437 7.99728 3.25 7.5 3.25ZM7.5 0.625C4.375 0.625 1.70625 2.43917 0.625 5C1.70625 7.56083 4.375 9.375 7.5 9.375C10.625 9.375 13.2938 7.56083 14.375 5C13.2938 2.43917 10.625 0.625 7.5 0.625ZM13.0125 5C12.5073 5.96268 11.7229 6.77377 10.7485 7.34106C9.77397 7.90836 8.6485 8.2091 7.5 8.2091C6.3515 8.2091 5.22603 7.90836 4.25155 7.34106C3.27707 6.77377 2.49266 5.96268 1.9875 5C2.49266 4.03732 3.27707 3.22623 4.25155 2.65893C5.22603 2.09164 6.3515 1.7909 7.5 1.7909C8.6485 1.7909 9.77397 2.09164 10.7485 2.65893C11.7229 3.22623 12.5073 4.03732 13.0125 5Z" fill="black"/>
</svg>
